<mxfile host="app.diagrams.net" modified="2023-08-02T13:39:08.623Z" agent="Mozilla/5.0 (Windows NT 10.0; Win64; x64) AppleWebKit/537.36 (KHTML, like Gecko) Chrome/115.0.0.0 Safari/537.36" etag="5T_RBrJSlXHHb8aPQ35u" version="21.6.2" type="github">
  <diagram id="C5RBs43oDa-KdzZeNtuy" name="Page-1">
    <mxGraphModel dx="1877" dy="542" grid="1" gridSize="10" guides="1" tooltips="1" connect="1" arrows="1" fold="1" page="1" pageScale="1" pageWidth="827" pageHeight="1169" math="0" shadow="0">
      <root>
        <mxCell id="WIyWlLk6GJQsqaUBKTNV-0" />
        <mxCell id="WIyWlLk6GJQsqaUBKTNV-1" parent="WIyWlLk6GJQsqaUBKTNV-0" />
        <mxCell id="j6BAM_S3PTDZuPRe9gh3-0" value="四出活动总流程" style="text;html=1;strokeColor=none;fillColor=none;align=center;verticalAlign=middle;whiteSpace=wrap;rounded=0;" vertex="1" parent="WIyWlLk6GJQsqaUBKTNV-1">
          <mxGeometry x="20" y="20" width="90" height="30" as="geometry" />
        </mxCell>
        <mxCell id="j6BAM_S3PTDZuPRe9gh3-23" value="" style="edgeStyle=orthogonalEdgeStyle;rounded=0;orthogonalLoop=1;jettySize=auto;html=1;" edge="1" parent="WIyWlLk6GJQsqaUBKTNV-1" source="j6BAM_S3PTDZuPRe9gh3-1" target="j6BAM_S3PTDZuPRe9gh3-22">
          <mxGeometry relative="1" as="geometry" />
        </mxCell>
        <mxCell id="j6BAM_S3PTDZuPRe9gh3-1" value="活动申报（服务队长）" style="rounded=1;whiteSpace=wrap;html=1;" vertex="1" parent="WIyWlLk6GJQsqaUBKTNV-1">
          <mxGeometry x="25" y="70" width="80" height="50" as="geometry" />
        </mxCell>
        <mxCell id="j6BAM_S3PTDZuPRe9gh3-5" value="" style="edgeStyle=orthogonalEdgeStyle;rounded=0;orthogonalLoop=1;jettySize=auto;html=1;" edge="1" parent="WIyWlLk6GJQsqaUBKTNV-1" source="j6BAM_S3PTDZuPRe9gh3-2" target="j6BAM_S3PTDZuPRe9gh3-4">
          <mxGeometry relative="1" as="geometry" />
        </mxCell>
        <mxCell id="j6BAM_S3PTDZuPRe9gh3-2" value="方案预审（秘书处）" style="rounded=1;whiteSpace=wrap;html=1;" vertex="1" parent="WIyWlLk6GJQsqaUBKTNV-1">
          <mxGeometry x="250" y="70" width="80" height="50" as="geometry" />
        </mxCell>
        <mxCell id="j6BAM_S3PTDZuPRe9gh3-7" value="" style="edgeStyle=orthogonalEdgeStyle;rounded=0;orthogonalLoop=1;jettySize=auto;html=1;" edge="1" parent="WIyWlLk6GJQsqaUBKTNV-1" source="j6BAM_S3PTDZuPRe9gh3-4" target="j6BAM_S3PTDZuPRe9gh3-6">
          <mxGeometry relative="1" as="geometry" />
        </mxCell>
        <mxCell id="j6BAM_S3PTDZuPRe9gh3-4" value="财务结算中心审核" style="rounded=1;whiteSpace=wrap;html=1;" vertex="1" parent="WIyWlLk6GJQsqaUBKTNV-1">
          <mxGeometry x="380" y="70" width="80" height="50" as="geometry" />
        </mxCell>
        <mxCell id="j6BAM_S3PTDZuPRe9gh3-9" value="" style="edgeStyle=orthogonalEdgeStyle;rounded=0;orthogonalLoop=1;jettySize=auto;html=1;" edge="1" parent="WIyWlLk6GJQsqaUBKTNV-1" source="j6BAM_S3PTDZuPRe9gh3-6" target="j6BAM_S3PTDZuPRe9gh3-8">
          <mxGeometry relative="1" as="geometry" />
        </mxCell>
        <mxCell id="j6BAM_S3PTDZuPRe9gh3-6" value="财务委主席审核" style="rounded=1;whiteSpace=wrap;html=1;" vertex="1" parent="WIyWlLk6GJQsqaUBKTNV-1">
          <mxGeometry x="500" y="70" width="80" height="50" as="geometry" />
        </mxCell>
        <mxCell id="j6BAM_S3PTDZuPRe9gh3-11" value="" style="edgeStyle=orthogonalEdgeStyle;rounded=0;orthogonalLoop=1;jettySize=auto;html=1;" edge="1" parent="WIyWlLk6GJQsqaUBKTNV-1" source="j6BAM_S3PTDZuPRe9gh3-8" target="j6BAM_S3PTDZuPRe9gh3-10">
          <mxGeometry relative="1" as="geometry" />
        </mxCell>
        <mxCell id="j6BAM_S3PTDZuPRe9gh3-8" value="财务长审核" style="rounded=1;whiteSpace=wrap;html=1;" vertex="1" parent="WIyWlLk6GJQsqaUBKTNV-1">
          <mxGeometry x="620" y="70" width="80" height="50" as="geometry" />
        </mxCell>
        <mxCell id="j6BAM_S3PTDZuPRe9gh3-13" value="" style="edgeStyle=orthogonalEdgeStyle;rounded=0;orthogonalLoop=1;jettySize=auto;html=1;" edge="1" parent="WIyWlLk6GJQsqaUBKTNV-1" source="j6BAM_S3PTDZuPRe9gh3-10" target="j6BAM_S3PTDZuPRe9gh3-12">
          <mxGeometry relative="1" as="geometry" />
        </mxCell>
        <mxCell id="j6BAM_S3PTDZuPRe9gh3-10" value="专委会主席审核" style="rounded=1;whiteSpace=wrap;html=1;" vertex="1" parent="WIyWlLk6GJQsqaUBKTNV-1">
          <mxGeometry x="730" y="70" width="80" height="50" as="geometry" />
        </mxCell>
        <mxCell id="j6BAM_S3PTDZuPRe9gh3-15" value="" style="edgeStyle=orthogonalEdgeStyle;rounded=0;orthogonalLoop=1;jettySize=auto;html=1;" edge="1" parent="WIyWlLk6GJQsqaUBKTNV-1" source="j6BAM_S3PTDZuPRe9gh3-12" target="j6BAM_S3PTDZuPRe9gh3-14">
          <mxGeometry relative="1" as="geometry" />
        </mxCell>
        <mxCell id="j6BAM_S3PTDZuPRe9gh3-12" value="分管主任审核" style="rounded=1;whiteSpace=wrap;html=1;" vertex="1" parent="WIyWlLk6GJQsqaUBKTNV-1">
          <mxGeometry x="730" y="170" width="80" height="50" as="geometry" />
        </mxCell>
        <mxCell id="j6BAM_S3PTDZuPRe9gh3-17" value="" style="edgeStyle=orthogonalEdgeStyle;rounded=0;orthogonalLoop=1;jettySize=auto;html=1;" edge="1" parent="WIyWlLk6GJQsqaUBKTNV-1" source="j6BAM_S3PTDZuPRe9gh3-14" target="j6BAM_S3PTDZuPRe9gh3-16">
          <mxGeometry relative="1" as="geometry" />
        </mxCell>
        <mxCell id="j6BAM_S3PTDZuPRe9gh3-14" value="服务队开始活动" style="rounded=1;whiteSpace=wrap;html=1;" vertex="1" parent="WIyWlLk6GJQsqaUBKTNV-1">
          <mxGeometry x="620" y="170" width="80" height="50" as="geometry" />
        </mxCell>
        <mxCell id="j6BAM_S3PTDZuPRe9gh3-19" value="" style="edgeStyle=orthogonalEdgeStyle;rounded=0;orthogonalLoop=1;jettySize=auto;html=1;" edge="1" parent="WIyWlLk6GJQsqaUBKTNV-1" source="j6BAM_S3PTDZuPRe9gh3-16" target="j6BAM_S3PTDZuPRe9gh3-18">
          <mxGeometry relative="1" as="geometry" />
        </mxCell>
        <mxCell id="j6BAM_S3PTDZuPRe9gh3-16" value="会员签到、签退" style="rounded=1;whiteSpace=wrap;html=1;" vertex="1" parent="WIyWlLk6GJQsqaUBKTNV-1">
          <mxGeometry x="500" y="170" width="80" height="50" as="geometry" />
        </mxCell>
        <mxCell id="j6BAM_S3PTDZuPRe9gh3-21" value="" style="edgeStyle=orthogonalEdgeStyle;rounded=0;orthogonalLoop=1;jettySize=auto;html=1;" edge="1" parent="WIyWlLk6GJQsqaUBKTNV-1" source="j6BAM_S3PTDZuPRe9gh3-18" target="j6BAM_S3PTDZuPRe9gh3-20">
          <mxGeometry relative="1" as="geometry" />
        </mxCell>
        <mxCell id="j6BAM_S3PTDZuPRe9gh3-18" value="活动结束" style="rounded=1;whiteSpace=wrap;html=1;" vertex="1" parent="WIyWlLk6GJQsqaUBKTNV-1">
          <mxGeometry x="380" y="170" width="80" height="50" as="geometry" />
        </mxCell>
        <mxCell id="j6BAM_S3PTDZuPRe9gh3-26" value="" style="edgeStyle=orthogonalEdgeStyle;rounded=0;orthogonalLoop=1;jettySize=auto;html=1;" edge="1" parent="WIyWlLk6GJQsqaUBKTNV-1" source="j6BAM_S3PTDZuPRe9gh3-20" target="j6BAM_S3PTDZuPRe9gh3-25">
          <mxGeometry relative="1" as="geometry" />
        </mxCell>
        <mxCell id="j6BAM_S3PTDZuPRe9gh3-20" value="财务结算中心核销" style="rounded=1;whiteSpace=wrap;html=1;" vertex="1" parent="WIyWlLk6GJQsqaUBKTNV-1">
          <mxGeometry x="260" y="170" width="80" height="50" as="geometry" />
        </mxCell>
        <mxCell id="j6BAM_S3PTDZuPRe9gh3-24" value="" style="edgeStyle=orthogonalEdgeStyle;rounded=0;orthogonalLoop=1;jettySize=auto;html=1;" edge="1" parent="WIyWlLk6GJQsqaUBKTNV-1" source="j6BAM_S3PTDZuPRe9gh3-22" target="j6BAM_S3PTDZuPRe9gh3-2">
          <mxGeometry relative="1" as="geometry" />
        </mxCell>
        <mxCell id="j6BAM_S3PTDZuPRe9gh3-22" value="财务专员审核" style="rounded=1;whiteSpace=wrap;html=1;" vertex="1" parent="WIyWlLk6GJQsqaUBKTNV-1">
          <mxGeometry x="140" y="70" width="80" height="50" as="geometry" />
        </mxCell>
        <mxCell id="j6BAM_S3PTDZuPRe9gh3-28" value="" style="edgeStyle=orthogonalEdgeStyle;rounded=0;orthogonalLoop=1;jettySize=auto;html=1;" edge="1" parent="WIyWlLk6GJQsqaUBKTNV-1" source="j6BAM_S3PTDZuPRe9gh3-25" target="j6BAM_S3PTDZuPRe9gh3-27">
          <mxGeometry relative="1" as="geometry" />
        </mxCell>
        <mxCell id="j6BAM_S3PTDZuPRe9gh3-25" value="财务长审核" style="rounded=1;whiteSpace=wrap;html=1;" vertex="1" parent="WIyWlLk6GJQsqaUBKTNV-1">
          <mxGeometry x="140" y="170" width="80" height="50" as="geometry" />
        </mxCell>
        <mxCell id="j6BAM_S3PTDZuPRe9gh3-30" value="" style="edgeStyle=orthogonalEdgeStyle;rounded=0;orthogonalLoop=1;jettySize=auto;html=1;" edge="1" parent="WIyWlLk6GJQsqaUBKTNV-1" source="j6BAM_S3PTDZuPRe9gh3-27" target="j6BAM_S3PTDZuPRe9gh3-29">
          <mxGeometry relative="1" as="geometry" />
        </mxCell>
        <mxCell id="j6BAM_S3PTDZuPRe9gh3-27" value="秘书长审核" style="rounded=1;whiteSpace=wrap;html=1;" vertex="1" parent="WIyWlLk6GJQsqaUBKTNV-1">
          <mxGeometry x="25" y="170" width="80" height="50" as="geometry" />
        </mxCell>
        <mxCell id="j6BAM_S3PTDZuPRe9gh3-32" value="" style="edgeStyle=orthogonalEdgeStyle;rounded=0;orthogonalLoop=1;jettySize=auto;html=1;" edge="1" parent="WIyWlLk6GJQsqaUBKTNV-1" source="j6BAM_S3PTDZuPRe9gh3-29" target="j6BAM_S3PTDZuPRe9gh3-31">
          <mxGeometry relative="1" as="geometry" />
        </mxCell>
        <mxCell id="j6BAM_S3PTDZuPRe9gh3-29" value="主任审核" style="rounded=1;whiteSpace=wrap;html=1;" vertex="1" parent="WIyWlLk6GJQsqaUBKTNV-1">
          <mxGeometry x="25" y="260" width="80" height="50" as="geometry" />
        </mxCell>
        <mxCell id="j6BAM_S3PTDZuPRe9gh3-31" value="通知服务队" style="rounded=1;whiteSpace=wrap;html=1;" vertex="1" parent="WIyWlLk6GJQsqaUBKTNV-1">
          <mxGeometry x="140" y="260" width="80" height="50" as="geometry" />
        </mxCell>
        <mxCell id="j6BAM_S3PTDZuPRe9gh3-33" value="办文相关流程" style="text;html=1;strokeColor=none;fillColor=none;align=center;verticalAlign=middle;whiteSpace=wrap;rounded=0;" vertex="1" parent="WIyWlLk6GJQsqaUBKTNV-1">
          <mxGeometry x="20" y="350" width="90" height="30" as="geometry" />
        </mxCell>
        <mxCell id="j6BAM_S3PTDZuPRe9gh3-39" value="" style="edgeStyle=orthogonalEdgeStyle;rounded=0;orthogonalLoop=1;jettySize=auto;html=1;" edge="1" parent="WIyWlLk6GJQsqaUBKTNV-1" source="j6BAM_S3PTDZuPRe9gh3-34" target="j6BAM_S3PTDZuPRe9gh3-38">
          <mxGeometry relative="1" as="geometry" />
        </mxCell>
        <mxCell id="j6BAM_S3PTDZuPRe9gh3-34" value="秘书处" style="rounded=1;whiteSpace=wrap;html=1;" vertex="1" parent="WIyWlLk6GJQsqaUBKTNV-1">
          <mxGeometry x="25" y="410" width="80" height="50" as="geometry" />
        </mxCell>
        <mxCell id="j6BAM_S3PTDZuPRe9gh3-37" value="收文" style="text;html=1;strokeColor=none;fillColor=none;align=center;verticalAlign=middle;whiteSpace=wrap;rounded=0;" vertex="1" parent="WIyWlLk6GJQsqaUBKTNV-1">
          <mxGeometry x="25" y="380" width="90" height="30" as="geometry" />
        </mxCell>
        <mxCell id="j6BAM_S3PTDZuPRe9gh3-41" value="" style="edgeStyle=orthogonalEdgeStyle;rounded=0;orthogonalLoop=1;jettySize=auto;html=1;" edge="1" parent="WIyWlLk6GJQsqaUBKTNV-1" source="j6BAM_S3PTDZuPRe9gh3-38" target="j6BAM_S3PTDZuPRe9gh3-40">
          <mxGeometry relative="1" as="geometry" />
        </mxCell>
        <mxCell id="j6BAM_S3PTDZuPRe9gh3-38" value="代表处代表" style="rounded=1;whiteSpace=wrap;html=1;" vertex="1" parent="WIyWlLk6GJQsqaUBKTNV-1">
          <mxGeometry x="140" y="410" width="80" height="50" as="geometry" />
        </mxCell>
        <mxCell id="j6BAM_S3PTDZuPRe9gh3-43" value="" style="edgeStyle=orthogonalEdgeStyle;rounded=0;orthogonalLoop=1;jettySize=auto;html=1;" edge="1" parent="WIyWlLk6GJQsqaUBKTNV-1" source="j6BAM_S3PTDZuPRe9gh3-40" target="j6BAM_S3PTDZuPRe9gh3-42">
          <mxGeometry relative="1" as="geometry" />
        </mxCell>
        <mxCell id="j6BAM_S3PTDZuPRe9gh3-40" value="代表处主任" style="rounded=1;whiteSpace=wrap;html=1;" vertex="1" parent="WIyWlLk6GJQsqaUBKTNV-1">
          <mxGeometry x="250" y="410" width="80" height="50" as="geometry" />
        </mxCell>
        <mxCell id="j6BAM_S3PTDZuPRe9gh3-42" value="秘书长" style="rounded=1;whiteSpace=wrap;html=1;" vertex="1" parent="WIyWlLk6GJQsqaUBKTNV-1">
          <mxGeometry x="360" y="410" width="80" height="50" as="geometry" />
        </mxCell>
        <mxCell id="j6BAM_S3PTDZuPRe9gh3-44" value="发文" style="text;html=1;strokeColor=none;fillColor=none;align=center;verticalAlign=middle;whiteSpace=wrap;rounded=0;" vertex="1" parent="WIyWlLk6GJQsqaUBKTNV-1">
          <mxGeometry x="20" y="470" width="90" height="30" as="geometry" />
        </mxCell>
        <mxCell id="j6BAM_S3PTDZuPRe9gh3-45" value="" style="edgeStyle=orthogonalEdgeStyle;rounded=0;orthogonalLoop=1;jettySize=auto;html=1;" edge="1" parent="WIyWlLk6GJQsqaUBKTNV-1" source="j6BAM_S3PTDZuPRe9gh3-46" target="j6BAM_S3PTDZuPRe9gh3-48">
          <mxGeometry relative="1" as="geometry" />
        </mxCell>
        <mxCell id="j6BAM_S3PTDZuPRe9gh3-46" value="秘书处" style="rounded=1;whiteSpace=wrap;html=1;" vertex="1" parent="WIyWlLk6GJQsqaUBKTNV-1">
          <mxGeometry x="25" y="500" width="80" height="50" as="geometry" />
        </mxCell>
        <mxCell id="j6BAM_S3PTDZuPRe9gh3-47" value="" style="edgeStyle=orthogonalEdgeStyle;rounded=0;orthogonalLoop=1;jettySize=auto;html=1;" edge="1" parent="WIyWlLk6GJQsqaUBKTNV-1" source="j6BAM_S3PTDZuPRe9gh3-48" target="j6BAM_S3PTDZuPRe9gh3-50">
          <mxGeometry relative="1" as="geometry" />
        </mxCell>
        <mxCell id="j6BAM_S3PTDZuPRe9gh3-48" value="秘书长" style="rounded=1;whiteSpace=wrap;html=1;" vertex="1" parent="WIyWlLk6GJQsqaUBKTNV-1">
          <mxGeometry x="140" y="500" width="80" height="50" as="geometry" />
        </mxCell>
        <mxCell id="j6BAM_S3PTDZuPRe9gh3-49" value="" style="edgeStyle=orthogonalEdgeStyle;rounded=0;orthogonalLoop=1;jettySize=auto;html=1;" edge="1" parent="WIyWlLk6GJQsqaUBKTNV-1" source="j6BAM_S3PTDZuPRe9gh3-50" target="j6BAM_S3PTDZuPRe9gh3-51">
          <mxGeometry relative="1" as="geometry" />
        </mxCell>
        <mxCell id="j6BAM_S3PTDZuPRe9gh3-50" value="分管主任" style="rounded=1;whiteSpace=wrap;html=1;" vertex="1" parent="WIyWlLk6GJQsqaUBKTNV-1">
          <mxGeometry x="250" y="500" width="80" height="50" as="geometry" />
        </mxCell>
        <mxCell id="j6BAM_S3PTDZuPRe9gh3-53" value="" style="edgeStyle=orthogonalEdgeStyle;rounded=0;orthogonalLoop=1;jettySize=auto;html=1;" edge="1" parent="WIyWlLk6GJQsqaUBKTNV-1" source="j6BAM_S3PTDZuPRe9gh3-51" target="j6BAM_S3PTDZuPRe9gh3-52">
          <mxGeometry relative="1" as="geometry" />
        </mxCell>
        <mxCell id="j6BAM_S3PTDZuPRe9gh3-51" value="主任" style="rounded=1;whiteSpace=wrap;html=1;" vertex="1" parent="WIyWlLk6GJQsqaUBKTNV-1">
          <mxGeometry x="360" y="500" width="80" height="50" as="geometry" />
        </mxCell>
        <mxCell id="j6BAM_S3PTDZuPRe9gh3-55" value="" style="edgeStyle=orthogonalEdgeStyle;rounded=0;orthogonalLoop=1;jettySize=auto;html=1;" edge="1" parent="WIyWlLk6GJQsqaUBKTNV-1" source="j6BAM_S3PTDZuPRe9gh3-52" target="j6BAM_S3PTDZuPRe9gh3-54">
          <mxGeometry relative="1" as="geometry" />
        </mxCell>
        <mxCell id="j6BAM_S3PTDZuPRe9gh3-52" value="代表处代表" style="rounded=1;whiteSpace=wrap;html=1;" vertex="1" parent="WIyWlLk6GJQsqaUBKTNV-1">
          <mxGeometry x="480" y="500" width="80" height="50" as="geometry" />
        </mxCell>
        <mxCell id="j6BAM_S3PTDZuPRe9gh3-54" value="下发给会员（系统需要提供能查看会员已读、未读的功能）" style="rounded=1;whiteSpace=wrap;html=1;" vertex="1" parent="WIyWlLk6GJQsqaUBKTNV-1">
          <mxGeometry x="600" y="500" width="140" height="50" as="geometry" />
        </mxCell>
        <mxCell id="j6BAM_S3PTDZuPRe9gh3-56" value="用章申请流程" style="text;html=1;strokeColor=none;fillColor=none;align=center;verticalAlign=middle;whiteSpace=wrap;rounded=0;" vertex="1" parent="WIyWlLk6GJQsqaUBKTNV-1">
          <mxGeometry x="25" y="640" width="90" height="30" as="geometry" />
        </mxCell>
        <mxCell id="j6BAM_S3PTDZuPRe9gh3-60" value="" style="edgeStyle=orthogonalEdgeStyle;rounded=0;orthogonalLoop=1;jettySize=auto;html=1;" edge="1" parent="WIyWlLk6GJQsqaUBKTNV-1" source="j6BAM_S3PTDZuPRe9gh3-57" target="j6BAM_S3PTDZuPRe9gh3-59">
          <mxGeometry relative="1" as="geometry" />
        </mxCell>
        <mxCell id="j6BAM_S3PTDZuPRe9gh3-57" value="服务队队长" style="rounded=1;whiteSpace=wrap;html=1;" vertex="1" parent="WIyWlLk6GJQsqaUBKTNV-1">
          <mxGeometry x="25" y="690" width="80" height="50" as="geometry" />
        </mxCell>
        <mxCell id="j6BAM_S3PTDZuPRe9gh3-63" style="edgeStyle=orthogonalEdgeStyle;rounded=0;orthogonalLoop=1;jettySize=auto;html=1;" edge="1" parent="WIyWlLk6GJQsqaUBKTNV-1" source="j6BAM_S3PTDZuPRe9gh3-58" target="j6BAM_S3PTDZuPRe9gh3-59">
          <mxGeometry relative="1" as="geometry" />
        </mxCell>
        <mxCell id="j6BAM_S3PTDZuPRe9gh3-58" value="专委会主席" style="rounded=1;whiteSpace=wrap;html=1;" vertex="1" parent="WIyWlLk6GJQsqaUBKTNV-1">
          <mxGeometry x="25" y="760" width="80" height="50" as="geometry" />
        </mxCell>
        <mxCell id="j6BAM_S3PTDZuPRe9gh3-62" value="" style="edgeStyle=orthogonalEdgeStyle;rounded=0;orthogonalLoop=1;jettySize=auto;html=1;" edge="1" parent="WIyWlLk6GJQsqaUBKTNV-1" source="j6BAM_S3PTDZuPRe9gh3-59" target="j6BAM_S3PTDZuPRe9gh3-61">
          <mxGeometry relative="1" as="geometry" />
        </mxCell>
        <mxCell id="j6BAM_S3PTDZuPRe9gh3-59" value="秘书处" style="rounded=1;whiteSpace=wrap;html=1;" vertex="1" parent="WIyWlLk6GJQsqaUBKTNV-1">
          <mxGeometry x="190" y="730" width="80" height="50" as="geometry" />
        </mxCell>
        <mxCell id="j6BAM_S3PTDZuPRe9gh3-65" value="" style="edgeStyle=orthogonalEdgeStyle;rounded=0;orthogonalLoop=1;jettySize=auto;html=1;" edge="1" parent="WIyWlLk6GJQsqaUBKTNV-1" source="j6BAM_S3PTDZuPRe9gh3-61" target="j6BAM_S3PTDZuPRe9gh3-64">
          <mxGeometry relative="1" as="geometry" />
        </mxCell>
        <mxCell id="j6BAM_S3PTDZuPRe9gh3-61" value="秘书长" style="rounded=1;whiteSpace=wrap;html=1;" vertex="1" parent="WIyWlLk6GJQsqaUBKTNV-1">
          <mxGeometry x="320" y="730" width="80" height="50" as="geometry" />
        </mxCell>
        <mxCell id="j6BAM_S3PTDZuPRe9gh3-67" value="" style="edgeStyle=orthogonalEdgeStyle;rounded=0;orthogonalLoop=1;jettySize=auto;html=1;" edge="1" parent="WIyWlLk6GJQsqaUBKTNV-1" source="j6BAM_S3PTDZuPRe9gh3-64" target="j6BAM_S3PTDZuPRe9gh3-66">
          <mxGeometry relative="1" as="geometry" />
        </mxCell>
        <mxCell id="j6BAM_S3PTDZuPRe9gh3-64" value="主任" style="rounded=1;whiteSpace=wrap;html=1;" vertex="1" parent="WIyWlLk6GJQsqaUBKTNV-1">
          <mxGeometry x="440" y="730" width="80" height="50" as="geometry" />
        </mxCell>
        <mxCell id="j6BAM_S3PTDZuPRe9gh3-66" value="代表处代表" style="rounded=1;whiteSpace=wrap;html=1;" vertex="1" parent="WIyWlLk6GJQsqaUBKTNV-1">
          <mxGeometry x="560" y="730" width="80" height="50" as="geometry" />
        </mxCell>
        <mxCell id="j6BAM_S3PTDZuPRe9gh3-68" value="代表处核销流程：未明确" style="text;html=1;strokeColor=none;fillColor=none;align=center;verticalAlign=middle;whiteSpace=wrap;rounded=0;" vertex="1" parent="WIyWlLk6GJQsqaUBKTNV-1">
          <mxGeometry x="5" y="840" width="185" height="40" as="geometry" />
        </mxCell>
        <mxCell id="j6BAM_S3PTDZuPRe9gh3-69" value="专委会发文：未明确" style="text;html=1;strokeColor=none;fillColor=none;align=center;verticalAlign=middle;whiteSpace=wrap;rounded=0;" vertex="1" parent="WIyWlLk6GJQsqaUBKTNV-1">
          <mxGeometry x="-10" y="585" width="185" height="40" as="geometry" />
        </mxCell>
      </root>
    </mxGraphModel>
  </diagram>
</mxfile>
